<svg width="187" height="64" viewBox="0 0 187 64" fill="none" xmlns="http://www.w3.org/2000/svg">
<path d="M10.0635 28.7622C10.0635 28.4917 10.0635 28.2084 9.98623 27.9251C9.90895 27.6417 9.98623 27.4614 9.98623 27.2167C9.98623 26.972 9.98623 26.9591 9.98623 26.8303C9.9684 25.8762 10.0461 24.9227 10.218 23.9841C10.3051 23.4937 10.4169 23.0079 10.5529 22.5288C11.4265 19.4076 13.0899 16.5643 15.3825 14.2733C15.7045 13.9514 16.0394 13.6423 16.3742 13.346C16.7219 13.0498 17.0697 12.7665 17.4432 12.496L17.6106 12.3544C17.9326 12.1225 18.2674 11.9036 18.6023 11.6975L18.9629 11.4528L19.7743 11.0021C19.9932 10.8733 20.225 10.7574 20.4568 10.6415L20.9591 10.3066L22.1182 9.8172C24.2832 8.97751 26.5834 8.54102 28.9055 8.5293C35.7571 8.5293 40.8185 12.8824 41.6685 19.0643C41.6685 19.206 41.6685 19.3477 41.6685 19.4893C41.8573 21.3047 41.7044 23.1394 41.2178 24.8985C39.067 33.4888 30.4896 39.5419 21.6675 39.5162C20.0572 39.5137 18.4666 39.1622 17.0053 38.4858C15.1295 37.572 13.5119 36.2038 12.2996 34.5056C11.0872 32.8074 10.3186 30.8331 10.0635 28.7622ZM44.8368 37.7775C45.9785 36.4559 47.0041 35.0383 47.902 33.5403C49.6923 30.5892 50.9194 27.3315 51.521 23.9326C52.1328 20.7909 52.067 17.5549 51.3278 14.4408C50.6475 11.6576 49.3242 9.07277 47.4641 6.89366C45.5508 4.68887 43.1466 2.96403 40.445 1.85798C37.3025 0.57844 33.9337 -0.0523949 30.5411 0.00340333C26.8728 -0.018372 23.2304 0.618505 19.7871 1.88374C13.1917 4.30838 7.62447 8.91671 4.01037 14.943C2.22852 17.9063 1.0062 21.1716 0.404257 24.5765C-0.197081 27.7196 -0.126856 30.9543 0.610321 34.0683C1.27885 36.8404 2.57419 39.4223 4.39674 41.6154C6.28715 43.8227 8.67536 45.5487 11.3643 46.6511C14.5275 47.9368 17.9186 48.5677 21.3326 48.5057C24.9926 48.5148 28.625 47.8737 32.0608 46.6125C34.2421 45.7988 36.328 44.7494 38.2814 43.4829L42.9307 48.3254H54.9983L44.8368 37.7775ZM69.6675 10.3066L66.1386 30.4751C65.9454 31.5698 65.7909 32.6774 65.675 33.8108C65.552 34.84 65.6175 35.883 65.8682 36.8888C66.0975 37.7938 66.6349 38.5908 67.3879 39.1427C68.4481 39.7962 69.6876 40.0982 70.9296 40.0056C72.2723 40.0778 73.609 39.7793 74.7933 39.1427C75.7292 38.5843 76.5193 37.8119 77.0987 36.8888C77.6955 35.9412 78.1307 34.901 78.3866 33.8108C78.6699 32.6774 78.9017 31.5698 79.0949 30.4751L82.5722 10.3066H92.0383L88.2647 31.8145C87.2602 37.6015 85.221 41.8301 82.1472 44.5003C79.0734 47.1706 74.8405 48.5014 69.4485 48.4928C64.0394 48.4928 60.2658 47.2049 58.115 44.5003C55.9642 41.7957 55.3847 37.5972 56.4021 31.8145L60.1628 10.3066H69.6675ZM94.2148 32.9479H121.261L122.755 24.7568H95.6959L94.2148 32.9479ZM125.459 10.3066H98.3361L96.855 18.4332H123.901L125.459 10.3066ZM93.0557 39.2586H120.179L118.685 47.4625H91.5746L93.0557 39.2586ZM146.632 44.9125C148.064 43.8406 149.275 42.5025 150.2 40.9715C151.151 39.3871 151.802 37.6406 152.119 35.8199C152.699 33.5169 152.348 31.0778 151.14 29.0327C149.556 26.9999 147.355 25.5357 144.868 24.8599C144.121 24.6023 143.348 24.3447 142.563 24.1129C141.837 23.9087 141.134 23.6326 140.463 23.2886C139.905 23.0211 139.413 22.6342 139.021 22.1553C138.85 21.9061 138.732 21.6238 138.677 21.3265C138.622 21.0293 138.629 20.7237 138.699 20.4295C138.794 19.9335 138.994 19.4635 139.285 19.0505C139.576 18.6376 139.951 18.2911 140.386 18.034C141.532 17.3844 142.818 17.0221 144.134 16.9779C145.27 16.9397 146.407 17.0348 147.521 17.2613C149.217 17.6288 150.873 18.1593 152.467 18.8454L154.038 11.2081C152.603 10.4937 151.084 9.96157 149.517 9.62401C147.642 9.26448 145.733 9.10903 143.825 9.16037C141.87 9.23547 139.937 9.58669 138.081 10.2036C136.429 10.7632 134.887 11.6042 133.522 12.6892C132.2 13.7696 131.084 15.0782 130.225 16.5529C129.322 18.0869 128.702 19.7708 128.396 21.5242C128.041 23.0058 128.041 24.5503 128.396 26.0318C128.721 27.1397 129.324 28.1461 130.147 28.9554C130.983 29.7631 131.967 30.4016 133.045 30.8357C134.178 31.3122 135.363 31.7501 136.561 32.1236C137.759 32.4971 138.441 32.8191 139.137 33.1153C139.746 33.3608 140.318 33.6903 140.837 34.0941C141.226 34.4042 141.516 34.8202 141.674 35.2918C141.799 35.7907 141.799 36.3128 141.674 36.8116C141.452 37.8504 140.85 38.769 139.987 39.3874C138.857 40.1748 137.498 40.5645 136.123 40.495C134.145 40.4927 132.18 40.1753 130.302 39.5548C128.914 39.1566 127.554 38.6661 126.232 38.0866L124.468 46.3678C127.894 47.7235 131.55 48.4014 135.234 48.364C137.414 48.3948 139.586 48.0908 141.674 47.4625C143.501 46.9021 145.218 46.0307 146.748 44.8867L146.632 44.9125ZM176.37 18.4075L171.09 47.4367H161.636L166.917 18.4075H157.683L159.022 10.3066H186.944L185.463 18.4332L176.37 18.4075ZM161.314 63.7158V54.1853H163.8L168.372 60.0195V54.1853H170.845V63.7158H168.372L163.8 57.9589V63.7802L161.314 63.7158ZM145.074 58.9506C145.072 59.3141 145.146 59.674 145.293 60.0066C145.575 60.6322 146.087 61.1254 146.722 61.3847C147.051 61.5132 147.4 61.5787 147.753 61.5779C148.106 61.581 148.455 61.5153 148.783 61.3847C149.107 61.2638 149.401 61.075 149.646 60.8309C149.901 60.6022 150.103 60.321 150.238 60.0066C150.386 59.6763 150.462 59.3187 150.462 58.957C150.462 58.5953 150.386 58.2377 150.238 57.9074C150.103 57.5892 149.901 57.3038 149.646 57.0702C149.397 56.8343 149.104 56.6504 148.783 56.5293C148.458 56.3884 148.107 56.3181 147.753 56.3232C147.399 56.3204 147.048 56.3906 146.722 56.5293C146.407 56.6537 146.119 56.8373 145.872 57.0702C145.618 57.3126 145.416 57.6045 145.279 57.9278C145.142 58.2512 145.072 58.5993 145.074 58.9506ZM142.498 58.9506C142.496 58.2734 142.632 57.603 142.897 56.9801C143.144 56.3759 143.518 55.8314 143.992 55.3831C144.467 54.9167 145.032 54.5528 145.654 54.3141C146.331 54.0503 147.052 53.9191 147.779 53.9277C148.509 53.9203 149.235 54.0514 149.916 54.3141C150.54 54.5557 151.109 54.9191 151.591 55.3831C152.067 55.8457 152.445 56.4007 152.699 57.0141C152.954 57.6275 153.081 58.2864 153.072 58.9506C153.078 59.631 152.947 60.3056 152.685 60.9339C152.425 61.5307 152.053 62.0726 151.591 62.5309C151.106 62.9907 150.538 63.3535 149.916 63.5999C149.235 63.8626 148.509 63.9937 147.779 63.9862C147.052 63.9949 146.331 63.8637 145.654 63.5999C145.035 63.3564 144.47 62.9932 143.992 62.5309C143.521 62.0801 143.148 61.5363 142.897 60.9339C142.632 60.3065 142.496 59.6318 142.498 58.9506ZM134.23 63.7158H131.744V54.1853H134.23V63.7158ZM121.93 56.2846V63.7158H119.458V56.2846H117.423V54.1853H123.978V56.2846H121.93ZM109.67 63.7158H107.197V54.1853H109.67V63.7158ZM94.0217 58.4483H94.4853C94.885 58.4727 95.282 58.369 95.6187 58.1521C95.7467 58.0462 95.8483 57.9119 95.9153 57.7598C95.9824 57.6078 96.0131 57.4423 96.005 57.2763C96.0152 57.1101 95.9854 56.9438 95.9182 56.7915C95.851 56.6391 95.7483 56.5051 95.6187 56.4005C95.2844 56.1784 94.8855 56.0742 94.4853 56.1043H94.0217V58.4483ZM99.4823 63.7158H96.3914L94.0217 60.0582V63.7158H91.536V54.1853H95.3997C95.8745 54.1807 96.346 54.2637 96.7906 54.43C97.1532 54.558 97.4825 54.7656 97.7544 55.0375C98.0263 55.3094 98.2339 55.6387 98.3619 56.0013C98.4927 56.3647 98.5581 56.7484 98.5551 57.1346C98.5814 57.7653 98.3955 58.3866 98.027 58.899C97.6382 59.3794 97.0897 59.7039 96.4816 59.8134L99.4823 63.7158ZM81.7608 56.2846V63.7158H79.2752V56.2846H77.279V54.1853H83.8344V56.2846H81.7608ZM63.653 54.1853V59.3369C63.653 59.6074 63.653 59.8907 63.653 60.1869C63.6756 60.4574 63.7408 60.7225 63.8462 60.9726C63.9509 61.2123 64.1261 61.4144 64.3484 61.5521C64.6392 61.7134 64.9695 61.7893 65.3015 61.7711C65.6375 61.789 65.972 61.7132 66.2674 61.5521C66.485 61.4124 66.6556 61.2105 66.7568 60.9726C66.8733 60.7256 66.9432 60.4593 66.9629 60.1869C66.9629 59.8907 66.9629 59.6074 66.9629 59.3369V54.1853H69.5516V59.7104C69.6506 60.8838 69.2853 62.0491 68.5341 62.9559C68.105 63.3277 67.6061 63.6103 67.0665 63.7872C66.527 63.9641 65.9576 64.0318 65.3917 63.9862C64.8277 64.0307 64.2606 63.9626 63.7233 63.7857C63.186 63.6088 62.6893 63.3267 62.2621 62.9559C61.8854 62.5093 61.6005 61.9927 61.4237 61.4358C61.2469 60.8789 61.1816 60.2926 61.2317 59.7104V54.1853H63.653ZM42.9436 63.7158V54.1853H45.4163L50.0013 60.0195V54.1853H52.474V63.7158H50.0013L45.4163 57.9589V63.7802L42.9436 63.7158Z" fill="#1793B0"/>
</svg>
